<svg xmlns="http://www.w3.org/2000/svg" width="150" height="39" fill="none"><path fill="#000" d="M145.9 11.6q-1.2 0-2-.5t-1.3-1.5-.4-2.4q0-1.2.4-2.2.6-1 1.4-1.5t1.9-.6q1 0 1.8.5t1.2 1.5q.5.9.5 2.2v.5h-6.5V6.4h5.6l-.7.4q0-.8-.2-1.5t-.7-.9l-1-.2-1.2.3q-.5.3-.8 1t-.3 1.6v.1q0 1 .3 1.8.3.7.8 1t1.3.3 1.2-.4.7-1.3h1.4q0 .9-.5 1.5a3 3 0 0 1-1.2 1q-.7.5-1.7.5m-9-8.4h1.4v2V5q0-.6.4-1.1.3-.5.9-.7a3 3 0 0 1 1.6-.3v1.5h-.6q-.8 0-1.2.2-.5.3-.8.9-.3.5-.3 1.4v4.3H137zm-5.4 8.4q-1 0-2-.5-.8-.5-1.2-1.5-.5-.9-.5-2.4 0-1.2.5-2.2t1.3-1.5q.8-.6 2-.6 1 0 1.7.5.9.5 1.3 1.5T135 7v.5h-6.5V6.4h5.7l-.7.4q0-.8-.3-1.5t-.6-.9l-1.1-.2-1.2.3q-.5.3-.7 1-.3.7-.3 1.6v.1q0 1 .3 1.8.2.7.8 1 .5.3 1.2.3.8 0 1.3-.4t.6-1.3h1.5q-.2.9-.6 1.5a3 3 0 0 1-1.2 1q-.7.5-1.7.5M119.5.1h1.4v5.6l-.2-.6.5-1.2 1-.7 1.2-.3q.8 0 1.4.4.6.3.9 1 .3.5.3 1.4v5.6h-1.4V5.8q0-.8-.4-1.2t-1.2-.4l-1 .3-.8.9q-.3.6-.3 1.4v4.5h-1.4zm-9 11.5q-1 0-1.9-.5t-1.3-1.5q-.5-.9-.5-2.4 0-1.2.5-2.2t1.3-1.5q.8-.6 2-.6.9 0 1.8.5t1.2 1.5.4 2.2v.5h-6.5V6.4h5.7l-.7.4q0-.8-.2-1.5t-.7-.9l-1-.2-1.2.3q-.5.3-.8 1t-.3 1.6v.1q0 1 .3 1.8.3.7.8 1t1.2.3 1.3-.4.6-1.3h1.5q0 .9-.6 1.5a3 3 0 0 1-1.2 1q-.6.5-1.7.5m-12-8.4h1.6l2.3 6.7h-.3l2.2-6.7h1.5l-3 8.1h-1.3zm-2.9 0h1.5v8.1h-1.5zm.8-1.3-.5-.1-.4-.4a1 1 0 0 1 0-1l.4-.3a1 1 0 0 1 1 0l.3.4.1.5-.1.4a1 1 0 0 1-.8.5M91.9.1h1.4v11.2h-1.4zm-7.4 0H86v11.2h-1.5zm-3.7 0h1.4v11.2h-1.4zM77 3.2h1.4v8.1H77zm.7-1.3-.5-.1-.3-.4a1 1 0 0 1 0-1l.3-.3a1 1 0 0 1 1 0l.4.4v.9a1 1 0 0 1-.9.5M64 3.2h1.5l2 7.1H67l2-7.1h1.6l2.1 7.1h-.5L74 3.2h1.4L73 11.3h-1.4l-2.2-7.7h.7l-2.4 7.7h-1.3zm-7.7 8.4-1.2-.3q-.6-.2-1-.8l-.5-1.2.3.3v1.7h-1.4V3.2H54V5l-.3.2q.1-.7.6-1.2.3-.5 1-.8.4-.3 1.2-.3a3 3 0 0 1 2.9 2q.4 1 .4 2.3 0 1.4-.4 2.3-.5 1-1.2 1.5a3 3 0 0 1-1.8.6m-.2-1.3q.6 0 1.1-.3.5-.5.7-1.1.3-.7.3-1.6L58 5.7q-.2-.8-.7-1.1t-1.1-.4q-.7 0-1.2.4-.4.3-.7 1T54 7.4t.2 1.6q.3.7.7 1t1.2.4m-3.6-.6H54v4.5h-1.4zm-5.2 1.8q-.7 0-1.2-.3t-1-.8l-.5-1.2.3.3v1.7h-1.4V3.2h1.4V5l-.3.2q.1-.7.5-1.2l1-.8 1.2-.3a3 3 0 0 1 3 2q.3 1 .3 2.3 0 1.4-.4 2.3-.3 1-1.1 1.5a3 3 0 0 1-1.8.6m-.3-1.3q.8 0 1.2-.3l.7-1.1.2-1.6-.2-1.6q-.3-.8-.7-1.1-.5-.4-1.2-.4t-1.1.4-.7 1-.3 1.7.3 1.6.7 1 1.1.4m-3.5-.6h1.4v4.5h-1.4zm-6.3 1.9q-.8 0-1.3-.3t-1-.9-.3-1.3q0-1 .6-1.7t2-.8l1.2-.2.8-.2q.3 0 .4-.3l.2-.5-.2-.6-.6-.5-1-.2a2 2 0 0 0-1.2.5q-.5.3-.5 1h-1.5q0-.7.4-1.3t1.2-1q.7-.4 1.7-.4t1.7.4 1 1 .4 1.6v3.5l.1 1q0 .6.2.7v.2H40l-.2-1.6h.3l-.6 1-1 .6q-.6.3-1.3.3m.4-1.2q.6 0 1.1-.4.5-.2.8-.8.3-.4.3-1.2V6.8h.2l-.6.4-1 .3-.8.2q-.8.1-1.2.5-.3.3-.3.9t.4 1 1 .3M26.2 3.2h1.4v2l-.1-.1q0-.6.4-1.1t1-.7l1.5-.3v1.5h-.6l-1.2.2q-.6.2-.7.9-.3.5-.3 1.4v4.3h-1.4zM20 11.6a3 3 0 0 1-1.5-.4q-.6-.3-.9-.9t-.3-1.5V3.2h1.4v5.5q0 .8.5 1.2.3.4 1.2.4.6 0 1-.3t.7-.8.3-1.5V3.2h1.4v8.1h-1.4V8.8l.3.6q-.1.7-.6 1.2-.3.4-.9.7zm-8.1 0q-1.2 0-2-.6T8.7 9.5t-.5-2.3.5-2.2a3 3 0 0 1 3.2-2q1 0 1.9.5T15 5t.4 2.2q0 1.5-.4 2.3-.5 1-1.3 1.5t-2 .6m0-1.3q.6 0 1.1-.3l.8-1 .2-1.8a4 4 0 0 0-.6-2.2q-.5-.8-1.5-.8-.7 0-1.2.3-.5.4-.7 1-.3.7-.3 1.7T10 9t.7 1 1.2.4M3.4 6.2l.3 1.3L0 .1h1.6L4.4 6H4L6.7.1h1.6L4.5 7.5 5 6.2v5.1H3.4zm136.8 32.3-1-.2q-.4-.1-.7-.6t-.2-1.1v-4.4H137v-1h.1q.5 0 .8-.2.3 0 .4-.4l.2-.8v-.7h1v2.2l-.1-.1h1.7v1h-1.6v4.3q0 .4.3.7l.6.2h.6v1zm-5.7-7.3h1.2v7.1h-1.2zm.6-1.1-.4-.1-.3-.3a1 1 0 0 1 0-.9l.3-.3h.8l.3.3.1.5v.4a1 1 0 0 1-.8.4m-7.1-1.6h1.3v2.7h-1.2zm-2 10q-1 0-1.6-.4t-1-1.3q-.3-1-.3-2 0-1.1.3-2 .4-.9 1-1.3t1.6-.5q.6 0 1 .2l.9.7.5 1-.3-.2v-1.5h1.2v7.1h-1.2v-1.6l.3-.2q-.3 1-.9 1.5t-1.5.5m.2-1q.6 0 1-.4.4-.3.6-1 .3-.5.3-1.4t-.3-1.4l-.6-.9q-.4-.3-1-.3t-1 .3l-.6 1q-.3.5-.2 1.3t.2 1.5.6 1zm-6-9h1.2v9.8h-1.2zm-3.3 2.7h1.2v7.1H117zm.6-1.1-.4-.1-.3-.3a1 1 0 0 1 0-.9l.3-.3h.8l.3.3.1.5v.4a1 1 0 0 1-.8.4m-6.1 8.4q-.7 0-1.2-.3l-.8-.8q-.3-.5-.3-1.3v-5h1.3V36q0 .7.3 1 .4.5 1 .5t1-.3.6-.8q.3-.5.3-1.2v-4h1.2v7.1h-1.2v-2.2l.2.6q-.1.6-.5 1-.3.4-.8.6-.5.3-1 .2m-6.9 0q-.6 0-1-.2t-.9-.7l-.5-1 .3.2v1.5h-1.2v-7.1h1.2v1.6l-.3.2.5-1q.4-.6.9-.8l1-.2q1 0 1.6.5t1 1.3q.3.8.3 2 0 1-.3 2a3 3 0 0 1-2.6 1.8m-.2-1q.6 0 1-.4.5-.3.6-1 .3-.5.2-1.3t-.2-1.4l-.6-1q-.4-.3-1-.3t-1 .3-.6 1-.3 1.4.3 1.4.6 1zm-3.1-9h1.2v2.7h-1.2zm-8 9.9a3 3 0 0 1-1.6-.4 3 3 0 0 1-1.2-1.4q-.3-.8-.4-2 0-1 .4-2a3 3 0 0 1 2.8-1.7 3 3 0 0 1 2.8 1.8q.4.8.4 2 0 1-.4 2a3 3 0 0 1-1 1.3 3 3 0 0 1-1.8.4m0-1q.7 0 1-.4.4-.3.7-.9l.2-1.4q0-1.4-.5-2t-1.4-.7q-.6 0-1 .3l-.6.9q-.2.6-.2 1.5t.2 1.4q.1.6.6 1 .4.3 1 .3m-5 1-1-.2q-.4-.1-.7-.6l-.2-1.1v-4.4h-1.2v-1q.6 0 .8-.2.3 0 .5-.4l.1-.8v-.7h1v2.2-.1h1.6v1h-1.5v4.3q0 .4.2.7l.7.2h.5v1zm-10.3 0q-.9 0-1.6-.4T75.2 37t-.4-2.2q0-1 .4-2 .4-.8 1.2-1.2a3 3 0 0 1 1.7-.5 3 3 0 0 1 2.7 1.7q.3.8.3 2v.4h-5.6v-1h5l-.7.3q0-.8-.2-1.3-.1-.6-.6-.8-.3-.2-1-.2-.4 0-1 .3l-.6.8q-.3.7-.3 1.5t.3 1.5.7 1 1 .3q.8 0 1.2-.4t.5-1.2h1.3q0 .9-.5 1.4-.3.6-1 1zm-6-10h1.2v9.8h-1.3zm-4.7 10-1-.2q-.5-.2-.8-.7l-.5-1 .3.2v1.5H64v-7.1h1.3v1.6l-.3.2q.1-.6.5-1 .3-.6.8-.8l1.1-.2a3 3 0 0 1 2.6 1.8q.3.8.3 2 0 1-.4 2a3 3 0 0 1-2.6 1.8m-.1-1q.6 0 1-.4l.6-1 .2-1.3q0-.9-.2-1.4l-.6-1q-.4-.3-1-.3t-1 .3-.7 1l-.2 1.4q0 .8.2 1.4l.7 1q.3.2 1 .3m-3.2-9h1.3v2.7H64zm-5.4 9.9q-.7 0-1.2-.2l-.9-.8-.3-1q0-1 .6-1.6t1.7-.7l1.1-.2.7-.2.4-.2v-1l-.6-.4-.8-.2q-.6 0-1 .4t-.6 1h-1.3q0-.7.4-1.2t1-.9l1.5-.3q.8 0 1.5.3t1 .9.3 1.4v4l.2.5v.2H61l-.2-1.4h.3q-.2.5-.6.8-.3.5-.8.6-.5.3-1.1.2m.3-1q.6 0 1-.3l.7-.7.2-1v-1.1h.2l-.6.4-.8.2-.7.1q-.7.2-1 .5l-.3.8q0 .5.3.8.4.3 1 .3m-9.7-6.3h1.3l2 5.9h-.2l2-6h1.2L53 38.4h-1.2zm-3.9 7.3a3 3 0 0 1-1.7-.4 3 3 0 0 1-1.1-1.4q-.4-.8-.4-2 0-1 .4-2a3 3 0 0 1 2.8-1.7 3 3 0 0 1 2.8 1.8q.4.8.4 2 0 1-.4 2a3 3 0 0 1-1.2 1.3 3 3 0 0 1-1.6.4m0-1q.6 0 1-.4.4-.3.6-.9.3-.6.2-1.4 0-1.4-.5-2t-1.3-.7q-.6 0-1 .3l-.7.9-.2 1.5q0 .8.2 1.4l.7 1q.4.3 1 .3m-9.4-9h1.3v9l-.3-.3h4.5v1.1H36zm-10.3 0H27v6.1h-.4l3.1-3.4h1.6l-4.9 5.3.6-1.1v3h-1.3zm2.1 6 .7-1.2 3.1 5H30zm-6.5 4-1.6-.3q-.7-.3-1-.8T18 36h1.4q0 .7.5 1 .4.5 1.2.5t1-.3q.6-.3.5-.8t-.3-.6q-.3-.3-1-.4l-1-.2a3 3 0 0 1-1.6-.7q-.5-.5-.5-1.2t.3-1.2l1-.8q.7-.3 1.5-.3t1.5.3 1 .9q.3.5.3 1.2h-1.3q0-.6-.4-1T21 32l-.8.2q-.3 0-.5.4l-.2.5.3.6.8.3 1.3.2 1 .4q.6.3.8.7l.2.9a2 2 0 0 1-1.4 2q-.6.3-1.4.3m-8.7-10h1.5l3.5 9.8H16l-3-8.7h.3l-3 8.7H8.8zm-1.6 5.7h4.8v1.1h-4.8z"/></svg>